<svg xmlns="http://www.w3.org/2000/svg" width="100" height="100" fill="none"><path fill="#2C2C2C" d="M72.28 50.85c0 12.55-9.966 22.69-22.3 22.69-12.295 0-22.261-10.14-22.261-22.69 0-6.255 2.482-11.928 6.53-16.007a21.878 21.878 0 0 1 15.732-6.644c12.333 0 22.3 10.14 22.3 22.651Zm13.06-35.93a23.673 23.673 0 0 1-17.183 7.11c-2.634 0-5.27-.467-7.828-1.36a30.512 30.512 0 0 0-10.348-1.788c-3.59 0-7.064.622-10.31 1.787-8.744 3.07-18.481.894-25.01-5.75a30.122 30.122 0 0 1 1.832-1.787C25.352 4.973 37.113 0 49.981 0c13.823 0 26.31 5.711 35.36 14.92Z"/><path fill="#2C2C2C" d="M85.34 14.92a23.673 23.673 0 0 1-17.183 7.11c-4.85-.7-9.546-2.682-13.899-5.09-12.257-6.683-26.768-7.421-39.598-2.02a30.122 30.122 0 0 1 1.833-1.788C25.352 4.973 37.113 0 49.981 0c13.823 0 26.31 5.711 35.36 14.92Z"/><path fill="#2C2C2C" d="M14.66 14.92c6.53 6.644 16.267 8.82 25.011 5.75a30.46 30.46 0 0 1 10.31-1.787c3.628 0 7.103.621 10.348 1.787 2.559.893 5.194 1.36 7.828 1.36-4.85-.7-9.546-2.681-13.899-5.09-12.257-6.682-26.768-7.42-39.598-2.02Z" style="mix-blend-mode:multiply"/><path fill="#2C2C2C" d="M1.718 37.68c6.339 1.748 11.532 5.983 14.663 11.617 1.298 2.33 2.215 4.856 2.75 7.576.61 3.419 1.832 6.799 3.627 9.985 1.833 3.185 4.086 5.944 6.682 8.197 7.026 6.178 10.005 15.852 7.6 24.944a65.468 65.468 0 0 1-2.407-.739C23.255 95.53 13.135 87.682 6.682 76.3-.19 64.138-1.604 50.268 1.718 37.679Z"/><path fill="#2C2C2C" d="M1.718 37.68c6.339 1.748 11.532 5.983 14.663 11.617 1.833 4.623 2.482 9.751 2.635 14.802.42 14.103 7.026 27.274 18.023 35.9a65.468 65.468 0 0 1-2.406-.739C23.255 95.53 13.135 87.682 6.682 76.3-.19 64.138-1.604 50.268 1.718 37.679Z"/><path fill="#2C2C2C" d="M37.037 99.995c2.406-9.091-.573-18.766-7.599-24.943-2.596-2.254-4.85-5.012-6.682-8.198-1.795-3.186-3.017-6.566-3.628-9.985-.534-2.72-1.45-5.245-2.75-7.576 1.834 4.623 2.483 9.752 2.636 14.803.42 14.103 7.026 27.274 18.023 35.899Z" style="mix-blend-mode:multiply"/><path fill="#2C2C2C" d="M62.927 100.001a24.746 24.746 0 0 1 2.558-18.727 23.577 23.577 0 0 1 5.079-6.177 32.516 32.516 0 0 0 6.644-8.237c1.833-3.186 3.017-6.566 3.666-9.985 1.756-9.247 8.439-16.745 17.412-19.154.23.829.433 1.657.611 2.486 2.482 11.889.84 24.75-5.613 36.094-6.912 12.16-17.985 20.358-30.357 23.7Z"/><path fill="#2C2C2C" d="M62.927 100.001a24.746 24.746 0 0 1 2.558-18.727c3.017-3.924 7.064-7.032 11.265-9.713 11.799-7.42 19.703-19.854 21.536-33.84.23.829.433 1.657.611 2.486 2.482 11.889.84 24.75-5.613 36.094-6.912 12.16-17.985 20.358-30.357 23.7Z"/><path fill="#2C2C2C" d="M98.29 37.72c-8.974 2.41-15.657 9.908-17.413 19.155-.65 3.419-1.833 6.799-3.666 9.985a32.516 32.516 0 0 1-6.644 8.237 23.577 23.577 0 0 0-5.079 6.177c3.017-3.924 7.064-7.032 11.265-9.713 11.799-7.42 19.703-19.854 21.536-33.84Z" style="mix-blend-mode:multiply"/></svg>