<svg xmlns="http://www.w3.org/2000/svg" width="23" height="34" fill="none"><g opacity=".8"><path fill="url(#a)" d="M8.7 20.639c-.88-.434-1.565-1.156-1.849-2.06-.567-1.811.689-3.672 2.805-4.157l7.664-1.757c2.117-.485 4.292.59 4.86 2.4.567 1.81-.69 3.671-2.806 4.156l-7.664 1.757a4.544 4.544 0 0 1-3.01-.34Z"/><path fill="url(#b)" d="M8.398 32.092c-1.365-.698-2.154-2.101-1.854-3.551.381-1.844 2.38-3.065 4.462-2.727l7.277 1.18c2.083.337 3.463 2.105 3.081 3.949-.381 1.843-2.38 3.064-4.462 2.726L9.625 32.49a4.146 4.146 0 0 1-1.227-.398Z"/><path fill="url(#c)" d="M1.843 11.131a3.675 3.675 0 0 1-.965-.78c-1.319-1.503-1.13-3.757.42-5.035L6.719.851c1.551-1.278 3.878-1.096 5.198.407 1.319 1.503 1.13 3.757-.42 5.035l-5.42 4.465a3.783 3.783 0 0 1-4.233.373Z"/></g><defs><linearGradient id="a" x1="14.515" x2="15.383" y1="14.293" y2="21.029" gradientUnits="userSpaceOnUse"><stop stop-color="#D0D0D0"/><stop offset="1" stop-color="#fff" stop-opacity=".2"/></linearGradient><linearGradient id="b" x1="13.954" x2="14.743" y1="27.384" y2="33.67" gradientUnits="userSpaceOnUse"><stop stop-color="#D0D0D0"/><stop offset="1" stop-color="#fff" stop-opacity=".2"/></linearGradient><linearGradient id="c" x1="6.397" x2="8.297" y1="2.369" y2="11.267" gradientUnits="userSpaceOnUse"><stop stop-color="#D0D0D0"/><stop offset="1" stop-color="#fff" stop-opacity=".2"/></linearGradient></defs></svg>