<svg xmlns="http://www.w3.org/2000/svg" width="141" height="128" fill="none"><path fill="url(#a)" d="M89.965 0c27.94 0 50.591 22.65 50.591 50.59v26.82c0 27.939-22.651 50.589-50.591 50.589H50.59c-27.94 0-50.59-22.65-50.59-50.59V50.591C0 22.65 22.65 0 50.59 0h39.375ZM70.223 42.025c-5.16 0-9.352 4.32-9.352 9.632v24.567c0 5.42 4.192 9.75 9.352 9.75 5.271 0 9.464-4.33 9.465-9.75V51.657c0-5.313-4.194-9.632-9.465-9.632Z"/><defs><linearGradient id="a" x1="70.278" x2="91.294" y1="26.119" y2="124.191" gradientUnits="userSpaceOnUse"><stop stop-color="#D0D0D0"/><stop offset="1" stop-color="#4C4D4F"/></linearGradient></defs></svg>