<svg xmlns="http://www.w3.org/2000/svg" width="50" height="50" fill="none"><path fill="#A3A3A3" fill-rule="evenodd" d="M42.466 11.217a2.604 2.604 0 0 0-3.683-3.683l-12.52 12.52 3.286 4.08 12.917-12.917ZM20.45 25.867l3.287 4.08-12.52 12.52a2.604 2.604 0 0 1-3.684-3.683L20.45 25.867Z" clip-rule="evenodd"/><path fill="#A3A3A3" d="M10.945 6.771c-2.244 0-3.366 0-3.835.59-.147.185-.25.4-.301.63-.166.735.538 1.61 1.946 3.357L33.593 42.18c.368.457.552.686.795.83.08.047.164.087.251.12.264.098.557.098 1.144.098h3.272c2.244 0 3.366 0 3.835-.59.146-.185.25-.4.3-.629.167-.736-.537-1.61-1.945-3.357L16.407 7.819c-.368-.457-.552-.685-.795-.83a1.561 1.561 0 0 0-.251-.12c-.264-.098-.558-.098-1.144-.098h-3.272Z"/></svg>