<svg xmlns="http://www.w3.org/2000/svg" width="149" height="28" fill="none"><path fill="url(#a)" d="m36.042 24.968 7.953-22.653h7.223l7.953 22.653h-5.798l-1.553-4.625h-8.46l-1.583 4.625h-5.735Zm8.65-8.902h5.797l-2.883-8.682-2.915 8.681Z"/><path fill="url(#b)" d="M59.839 24.968V1.681h5.259v23.287h-5.26Z"/><path fill="url(#c)" d="M69.197 18.473v-6.59h-2.471V7.67h2.47V3.487h5.26V7.67h5.418v4.214h-5.418v6.337c0 .55.074 1.003.222 1.362.148.338.349.613.602.824.254.211.57.36.95.444.38.084.803.126 1.268.126.359 0 .74-.02 1.14-.063.402-.042.814-.106 1.236-.19v4.245c-.781.127-1.51.233-2.186.317a15.09 15.09 0 0 1-1.933.127c-1.077 0-2.027-.137-2.851-.412-.824-.274-1.51-.686-2.06-1.235-.549-.57-.96-1.289-1.235-2.155-.275-.866-.412-1.912-.412-3.137Z"/><path fill="url(#d)" d="M81.497 24.968V7.67h4.91l.128 3.707c.359-1.31.887-2.25 1.584-2.82.718-.59 1.658-.887 2.82-.887h1.837v5.323H90.78c-.718 0-1.33.074-1.838.222-.506.127-.918.348-1.235.665a2.6 2.6 0 0 0-.697 1.14c-.148.466-.222 1.015-.222 1.649v8.3h-5.291Z"/><path fill="url(#e)" d="M94.215 24.968V7.67h5.228v17.3h-5.228Zm-.063-18.883V1.776h5.354v4.31h-5.354Z"/><path fill="url(#f)" d="M101.322 16.287c0-1.33.221-2.555.665-3.675.444-1.12 1.067-2.07 1.869-2.851.803-.803 1.775-1.426 2.915-1.87 1.141-.443 2.419-.665 3.834-.665 1.394 0 2.661.222 3.802.665 1.14.444 2.112 1.067 2.915 1.87.823.781 1.457 1.732 1.901 2.851.443 1.12.665 2.355.665 3.707 0 1.352-.222 2.587-.665 3.707a8.191 8.191 0 0 1-1.901 2.883c-.803.782-1.775 1.394-2.915 1.838-1.141.443-2.408.665-3.802.665-1.415 0-2.693-.222-3.834-.665-1.14-.444-2.112-1.056-2.915-1.838a8.411 8.411 0 0 1-1.869-2.883c-.444-1.12-.665-2.366-.665-3.739Zm5.322 0c0 .76.085 1.447.254 2.06a5.14 5.14 0 0 0 .76 1.52c.338.423.75.75 1.236.983.507.232 1.077.348 1.711.348.634 0 1.193-.116 1.679-.348.486-.233.898-.56 1.236-.983.338-.422.591-.929.76-1.52a7.743 7.743 0 0 0 .254-2.06c0-.718-.085-1.373-.254-1.964-.169-.613-.422-1.13-.76-1.553a3.083 3.083 0 0 0-1.236-.982c-.486-.232-1.045-.348-1.679-.348-.634 0-1.204.116-1.711.348a3.083 3.083 0 0 0-1.236.982c-.316.423-.57.94-.76 1.553a7.136 7.136 0 0 0-.254 1.964Z"/><path fill="url(#g)" d="M121.689 24.968V7.67h4.911l.095 3.105c.211-.633.496-1.161.855-1.584a5.42 5.42 0 0 1 1.204-1.109 4.842 4.842 0 0 1 1.521-.633 7.04 7.04 0 0 1 1.774-.222c.93 0 1.764.148 2.503.443a4.884 4.884 0 0 1 1.869 1.3c.529.549.93 1.235 1.204 2.059.296.824.444 1.753.444 2.788v11.152h-5.259v-9.505c0-.654-.053-1.225-.159-1.71-.105-.486-.264-.887-.475-1.204a1.88 1.88 0 0 0-.824-.697c-.338-.148-.75-.222-1.235-.222-.486 0-.93.084-1.331.253a2.35 2.35 0 0 0-.982.729 3.282 3.282 0 0 0-.634 1.172c-.127.465-.19 1.025-.19 1.68v9.504h-5.291Z"/><path fill="#060606" d="M20.544 14.206a6.331 6.331 0 0 1-6.338 6.338 6.33 6.33 0 0 1-6.327-6.338c0-1.747.705-3.332 1.856-4.471a6.271 6.271 0 0 1 4.471-1.856 6.33 6.33 0 0 1 6.338 6.327Z"/><path fill="url(#h)" d="M20.544 14.206a6.331 6.331 0 0 1-6.338 6.338 6.33 6.33 0 0 1-6.327-6.338c0-1.747.705-3.332 1.856-4.471a6.271 6.271 0 0 1 4.471-1.856 6.33 6.33 0 0 1 6.338 6.327Z"/><path fill="#060606" d="M24.255 4.167a6.788 6.788 0 0 1-4.883 1.986c-.75 0-1.498-.13-2.225-.38a8.808 8.808 0 0 0-2.941-.499 8.78 8.78 0 0 0-2.93.5c-2.486.857-5.253.25-7.109-1.607A14.145 14.145 0 0 1 14.206 0c3.928 0 7.477 1.595 10.05 4.167Z"/><path fill="url(#i)" d="M24.255 4.167a6.788 6.788 0 0 1-4.883 1.986c-.75 0-1.498-.13-2.225-.38a8.808 8.808 0 0 0-2.941-.499 8.78 8.78 0 0 0-2.93.5c-2.486.857-5.253.25-7.109-1.607A14.145 14.145 0 0 1 14.206 0c3.928 0 7.477 1.595 10.05 4.167Z"/><path fill="#060606" d="M24.255 4.167a6.788 6.788 0 0 1-4.883 1.986c-1.379-.195-2.713-.748-3.95-1.421a13.16 13.16 0 0 0-11.255-.565A14.145 14.145 0 0 1 14.206 0c3.928 0 7.477 1.595 10.05 4.167Z"/><path fill="url(#j)" d="M24.255 4.167a6.788 6.788 0 0 1-4.883 1.986c-1.379-.195-2.713-.748-3.95-1.421a13.16 13.16 0 0 0-11.255-.565A14.145 14.145 0 0 1 14.206 0c3.928 0 7.477 1.595 10.05 4.167Z"/><g style="mix-blend-mode:multiply"><path fill="#060606" d="M4.167 4.167c1.856 1.856 4.623 2.464 7.108 1.607.923-.326 1.91-.5 2.93-.5 1.032 0 2.02.174 2.942.5.727.25 1.476.38 2.225.38-1.379-.196-2.713-.75-3.95-1.422a13.16 13.16 0 0 0-11.255-.565Z"/><path fill="url(#k)" d="M4.167 4.167c1.856 1.856 4.623 2.464 7.108 1.607.923-.326 1.91-.5 2.93-.5 1.032 0 2.02.174 2.942.5.727.25 1.476.38 2.225.38-1.379-.196-2.713-.75-3.95-1.422a13.16 13.16 0 0 0-11.255-.565Z"/></g><path fill="#060606" d="M.488 10.527a6.83 6.83 0 0 1 4.168 3.245c.369.651.63 1.357.781 2.116.174.955.521 1.9 1.031 2.79a8.91 8.91 0 0 0 1.9 2.29c1.996 1.725 2.843 4.427 2.159 6.967-.231-.065-.46-.134-.684-.206A14.137 14.137 0 0 1 1.9 21.315 14.196 14.196 0 0 1 .49 10.527Z"/><path fill="url(#l)" d="M.488 10.527a6.83 6.83 0 0 1 4.168 3.245c.369.651.63 1.357.781 2.116.174.955.521 1.9 1.031 2.79a8.91 8.91 0 0 0 1.9 2.29c1.996 1.725 2.843 4.427 2.159 6.967-.231-.065-.46-.134-.684-.206A14.137 14.137 0 0 1 1.9 21.315 14.196 14.196 0 0 1 .49 10.527Z"/><path fill="#060606" d="M.488 10.527a6.83 6.83 0 0 1 4.168 3.245c.52 1.291.705 2.724.749 4.135a13.163 13.163 0 0 0 5.122 10.028c-.231-.065-.46-.134-.684-.206A14.137 14.137 0 0 1 1.9 21.315 14.196 14.196 0 0 1 .49 10.527Z"/><path fill="url(#m)" d="M.488 10.527a6.83 6.83 0 0 1 4.168 3.245c.52 1.291.705 2.724.749 4.135a13.163 13.163 0 0 0 5.122 10.028c-.231-.065-.46-.134-.684-.206A14.137 14.137 0 0 1 1.9 21.315 14.196 14.196 0 0 1 .49 10.527Z"/><g style="mix-blend-mode:multiply"><path fill="#060606" d="M10.527 27.935a6.859 6.859 0 0 0-2.16-6.968 8.91 8.91 0 0 1-1.9-2.29 8.778 8.778 0 0 1-1.03-2.789 7.078 7.078 0 0 0-.782-2.116c.521 1.292.706 2.724.75 4.135a13.162 13.162 0 0 0 5.122 10.028Z"/><path fill="url(#n)" d="M10.527 27.935a6.859 6.859 0 0 0-2.16-6.968 8.91 8.91 0 0 1-1.9-2.29 8.778 8.778 0 0 1-1.03-2.789 7.078 7.078 0 0 0-.782-2.116c.521 1.292.706 2.724.75 4.135a13.162 13.162 0 0 0 5.122 10.028Z"/></g><path fill="#060606" d="M17.885 27.935a6.81 6.81 0 0 1 .727-5.231 6.61 6.61 0 0 1 1.444-1.726 9.113 9.113 0 0 0 1.888-2.3 8.804 8.804 0 0 0 1.042-2.79c.5-2.583 2.398-4.677 4.949-5.35.065.232.123.463.174.694a14.188 14.188 0 0 1-1.596 10.083 14.137 14.137 0 0 1-8.628 6.62Z"/><path fill="url(#o)" d="M17.885 27.935a6.81 6.81 0 0 1 .727-5.231 6.61 6.61 0 0 1 1.444-1.726 9.113 9.113 0 0 0 1.888-2.3 8.804 8.804 0 0 0 1.042-2.79c.5-2.583 2.398-4.677 4.949-5.35.065.232.123.463.174.694a14.188 14.188 0 0 1-1.596 10.083 14.137 14.137 0 0 1-8.628 6.62Z"/><path fill="#060606" d="M17.885 27.935a6.81 6.81 0 0 1 .727-5.231c.858-1.096 2.008-1.965 3.202-2.713a13.16 13.16 0 0 0 6.12-9.453c.066.232.124.463.174.694a14.188 14.188 0 0 1-1.595 10.083 14.137 14.137 0 0 1-8.628 6.62Z"/><path fill="url(#p)" d="M17.885 27.935a6.81 6.81 0 0 1 .727-5.231c.858-1.096 2.008-1.965 3.202-2.713a13.16 13.16 0 0 0 6.12-9.453c.066.232.124.463.174.694a14.188 14.188 0 0 1-1.595 10.083 14.137 14.137 0 0 1-8.628 6.62Z"/><g style="mix-blend-mode:multiply"><path fill="#060606" d="M27.935 10.538c-2.55.673-4.45 2.767-4.95 5.35-.183.955-.52 1.9-1.04 2.79a9.116 9.116 0 0 1-1.89 2.3 6.61 6.61 0 0 0-1.443 1.726c.858-1.096 2.008-1.965 3.202-2.713a13.16 13.16 0 0 0 6.12-9.453Z"/><path fill="url(#q)" d="M27.935 10.538c-2.55.673-4.45 2.767-4.95 5.35-.183.955-.52 1.9-1.04 2.79a9.116 9.116 0 0 1-1.89 2.3 6.61 6.61 0 0 0-1.443 1.726c.858-1.096 2.008-1.965 3.202-2.713a13.16 13.16 0 0 0 6.12-9.453Z"/></g><path fill="url(#r)" d="M137.94 5.323c0-.745.139-1.442.416-2.091a5.28 5.28 0 0 1 2.876-2.816A5.501 5.501 0 0 1 143.37 0c.761 0 1.465.139 2.115.416.657.27 1.224.641 1.699 1.117a5.142 5.142 0 0 1 1.117 1.687 5.19 5.19 0 0 1 .416 2.08c0 .744-.139 1.44-.416 2.09a5.182 5.182 0 0 1-1.129 1.7 5.105 5.105 0 0 1-1.699 1.116 5.415 5.415 0 0 1-2.127.416c-.76 0-1.469-.139-2.126-.416a5.38 5.38 0 0 1-1.723-1.117 5.238 5.238 0 0 1-1.141-1.675 5.274 5.274 0 0 1-.416-2.091Zm1.236-.012c0 .602.103 1.16.309 1.675a4.2 4.2 0 0 0 .867 1.319c.373.372.812.665 1.319.88a4.436 4.436 0 0 0 1.663.308 4.24 4.24 0 0 0 1.664-.32 3.964 3.964 0 0 0 2.174-2.21 4.468 4.468 0 0 0 .309-1.676c0-.602-.103-1.156-.309-1.663a3.905 3.905 0 0 0-.855-1.307 3.818 3.818 0 0 0-1.307-.867 4.152 4.152 0 0 0-1.652-.321c-.602 0-1.16.107-1.675.32a3.937 3.937 0 0 0-1.319.868 4.068 4.068 0 0 0-.879 1.33 4.377 4.377 0 0 0-.309 1.664Zm1.984-2.578h2.507c.673 0 1.172.146 1.497.44.333.292.499.712.499 1.259 0 .76-.313 1.26-.938 1.497l1.093 1.925v.011h-1.545l-.891-1.77h-.867v1.77h-1.355V2.733Zm2.317 2.317c.254 0 .452-.04.594-.12.151-.086.226-.245.226-.474 0-.23-.075-.385-.226-.464-.142-.08-.34-.119-.594-.119h-.962V5.05h.962Z"/><defs><linearGradient id="a" x1="46.582" x2="139.971" y1="-.822" y2="4.717" gradientUnits="userSpaceOnUse"><stop stop-color="#C2C2C2"/><stop offset="1" stop-color="#999"/></linearGradient><linearGradient id="b" x1="46.582" x2="139.971" y1="-.822" y2="4.717" gradientUnits="userSpaceOnUse"><stop stop-color="#C2C2C2"/><stop offset="1" stop-color="#999"/></linearGradient><linearGradient id="c" x1="46.582" x2="139.971" y1="-.822" y2="4.717" gradientUnits="userSpaceOnUse"><stop stop-color="#C2C2C2"/><stop offset="1" stop-color="#999"/></linearGradient><linearGradient id="d" x1="46.582" x2="139.971" y1="-.822" y2="4.717" gradientUnits="userSpaceOnUse"><stop stop-color="#C2C2C2"/><stop offset="1" stop-color="#999"/></linearGradient><linearGradient id="e" x1="46.582" x2="139.971" y1="-.822" y2="4.717" gradientUnits="userSpaceOnUse"><stop stop-color="#C2C2C2"/><stop offset="1" stop-color="#999"/></linearGradient><linearGradient id="f" x1="46.582" x2="139.971" y1="-.822" y2="4.717" gradientUnits="userSpaceOnUse"><stop stop-color="#C2C2C2"/><stop offset="1" stop-color="#999"/></linearGradient><linearGradient id="g" x1="46.582" x2="139.971" y1="-.822" y2="4.717" gradientUnits="userSpaceOnUse"><stop stop-color="#C2C2C2"/><stop offset="1" stop-color="#999"/></linearGradient><linearGradient id="h" x1="9.128" x2="20.646" y1="9.529" y2="9.794" gradientUnits="userSpaceOnUse"><stop stop-color="#C2C2C2"/><stop offset="1" stop-color="#999"/></linearGradient><linearGradient id="i" x1="6.149" x2="24.324" y1=".802" y2="2.168" gradientUnits="userSpaceOnUse"><stop stop-color="#C2C2C2"/><stop offset="1" stop-color="#999"/></linearGradient><linearGradient id="j" x1="6.149" x2="24.324" y1=".801" y2="2.168" gradientUnits="userSpaceOnUse"><stop stop-color="#C2C2C2"/><stop offset="1" stop-color="#999"/></linearGradient><linearGradient id="k" x1="5.667" x2="19.314" y1="3.557" y2="5.156" gradientUnits="userSpaceOnUse"><stop stop-color="#C2C2C2"/><stop offset="1" stop-color="#999"/></linearGradient><linearGradient id="l" x1="1.061" x2="10.85" y1="12.794" y2="12.934" gradientUnits="userSpaceOnUse"><stop stop-color="#C2C2C2"/><stop offset="1" stop-color="#999"/></linearGradient><linearGradient id="m" x1="1.038" x2="10.615" y1="12.794" y2="12.928" gradientUnits="userSpaceOnUse"><stop stop-color="#C2C2C2"/><stop offset="1" stop-color="#999"/></linearGradient><linearGradient id="n" x1="5.257" x2="10.812" y1="15.617" y2="15.672" gradientUnits="userSpaceOnUse"><stop stop-color="#C2C2C2"/><stop offset="1" stop-color="#999"/></linearGradient><linearGradient id="o" x1="18.718" x2="28.512" y1="12.804" y2="12.943" gradientUnits="userSpaceOnUse"><stop stop-color="#C2C2C2"/><stop offset="1" stop-color="#999"/></linearGradient><linearGradient id="p" x1="18.718" x2="28.512" y1="12.804" y2="12.943" gradientUnits="userSpaceOnUse"><stop stop-color="#C2C2C2"/><stop offset="1" stop-color="#999"/></linearGradient><linearGradient id="q" x1="19.532" x2="28.012" y1="12.122" y2="12.272" gradientUnits="userSpaceOnUse"><stop stop-color="#C2C2C2"/><stop offset="1" stop-color="#999"/></linearGradient><linearGradient id="r" x1="138.851" x2="149.765" y1="-.494" y2="-.293" gradientUnits="userSpaceOnUse"><stop stop-color="#C2C2C2"/><stop offset="1" stop-color="#999"/></linearGradient></defs></svg>