<svg xmlns="http://www.w3.org/2000/svg" width="20" height="20" fill="none"><path fill="#000" d="M1.706 5.379.04 15.87a3.598 3.598 0 0 0 .815 2.879A3.575 3.575 0 0 0 3.57 20h11.886a3.575 3.575 0 0 0 2.714-1.25c.679-.8.971-1.843.814-2.879L17.32 5.38a2.124 2.124 0 0 0-2.114-1.808h-1.472A4.29 4.29 0 0 0 9.513 0a4.29 4.29 0 0 0-4.221 3.571H3.82c-1.064 0-1.95.758-2.114 1.808Zm7.807-3.95c1.329 0 2.436.914 2.757 2.142H6.756A2.857 2.857 0 0 1 9.513 1.43Zm-3.572 5c.393 0 .715.314.715.714A2.86 2.86 0 0 0 9.513 10a2.861 2.861 0 0 0 2.857-2.857c0-.4.322-.714.714-.714.393 0 .715.314.715.714a4.29 4.29 0 0 1-4.286 4.286 4.29 4.29 0 0 1-4.286-4.286c0-.4.322-.714.714-.714Z"/></svg>