<svg xmlns="http://www.w3.org/2000/svg" width="52" height="35" fill="none"><g clip-path="url(#a)"><mask id="b" width="52" height="35" x="0" y="0" maskUnits="userSpaceOnUse" style="mask-type:luminance"><path fill="#fff" d="M0 0h51.333v35H0V0Z"/></mask><g mask="url(#b)"><mask id="c" width="52" height="35" x="0" y="0" maskUnits="userSpaceOnUse" style="mask-type:luminance"><path fill="#fff" d="M51.333 0H0v35h51.333V0Z"/></mask><g mask="url(#c)"><path stroke="#A3A3A3" stroke-width="2.333" d="M25.669 1.458c13.365 0 24.2 7.182 24.2 16.041 0 8.86-10.835 16.042-24.2 16.042-13.365 0-24.2-7.182-24.2-16.04 0-8.86 10.835-16.043 24.2-16.043Z"/><path stroke="#A3A3A3" stroke-width="2.333" d="M25.668 33.16c8.572 0 15.522-7.011 15.522-15.662 0-8.65-6.95-15.664-15.522-15.664-8.573 0-15.523 7.013-15.523 15.663s6.95 15.663 15.523 15.663Z"/><path stroke="#A3A3A3" stroke-width="2.333" d="M25.667 1.458c3.367 0 6.096 7.182 6.096 16.041 0 8.86-2.73 16.042-6.096 16.042-3.368 0-6.097-7.182-6.097-16.04 0-8.86 2.73-16.043 6.096-16.043h.001Z"/><path fill="#A3A3A3" fill-rule="evenodd" d="M2.332 13.996v-2.333h46.667v2.333H2.332Zm1.17 11.67v-2.333h44.333v2.333H3.502Z" clip-rule="evenodd"/></g></g></g><defs><clipPath id="a"><path fill="#fff" d="M0 0h52v35H0z"/></clipPath></defs></svg>