<svg xmlns="http://www.w3.org/2000/svg" width="50" height="50" fill="none"><path fill="#A3A3A3" d="M24.583 45.313h.833c1.563 0 2.344 0 2.892-.398.176-.129.332-.284.46-.461.398-.548.398-1.33.398-2.892V28.386h2.5c1.563 0 2.344 0 2.892-.398a2.09 2.09 0 0 0 .46-.46c.398-.548.398-1.33.398-2.892v-.399c0-1.562 0-2.344-.398-2.891a2.09 2.09 0 0 0-.46-.461c-.548-.398-1.33-.398-2.892-.398h-2.5v-4.774c0-.97 0-1.456.159-1.84.211-.51.617-.915 1.127-1.127.383-.158.869-.158 1.84-.158.97 0 1.455 0 1.838-.159.51-.211.916-.617 1.128-1.127.158-.383.158-.869.158-1.84V7.929c0-1.08 0-1.619-.195-2.038a2.084 2.084 0 0 0-1.008-1.007c-.418-.196-.958-.196-2.038-.196-3.778 0-5.667 0-7.132.684a7.292 7.292 0 0 0-3.527 3.527c-.683 1.465-.683 3.354-.683 7.132v4.456h-2.5c-1.562 0-2.344 0-2.891.398a2.088 2.088 0 0 0-.461.46c-.398.548-.398 1.33-.398 2.892v.4c0 1.562 0 2.343.398 2.89a2.1 2.1 0 0 0 .46.462c.548.397 1.33.397 2.892.397h2.5v13.177c0 1.563 0 2.344.398 2.892.128.177.284.332.46.46.548.398 1.33.398 2.892.398Z"/></svg>